<svg width="802" height="335" viewBox="0 0 802 335" fill="none" xmlns="http://www.w3.org/2000/svg">
<path d="M254 274H56V64H281V240" stroke="url(#paint0_linear_17_12)" stroke-width="24"/>
<path d="M269 240H293V265L269 240Z" fill="#D39938"/>
<path d="M254 262L254 286L278 286L254 262Z" fill="#D39938"/>
<rect x="158" y="106" width="20" height="25" fill="url(#paint1_linear_17_12)"/>
<rect x="157" y="208" width="20" height="25" fill="url(#paint2_linear_17_12)"/>
<rect x="233" y="161" width="20" height="25" transform="rotate(90 233 161)" fill="url(#paint3_linear_17_12)"/>
<rect x="129" y="161" width="20" height="25" transform="rotate(90 129 161)" fill="url(#paint4_linear_17_12)"/>
<circle cx="168" cy="169" r="20" fill="url(#paint5_linear_17_12)"/>
<path d="M352.52 265V254.44H348.62V251.96H359.38V254.44H355.48V265H352.52ZM374.272 265V251.96H377.212V257H380.772V251.96H383.712V265H380.772V259.56H377.212V265H374.272ZM399.824 265V251.96H408.464V254.44H402.784V257.06H407.604V259.52H402.784V262.52H408.664V265H399.824ZM453.929 265.24C453.049 265.24 452.175 265.08 451.309 264.76C450.455 264.44 449.675 263.973 448.969 263.36L450.669 261.34C451.162 261.74 451.702 262.067 452.289 262.32C452.889 262.573 453.502 262.7 454.129 262.7C454.755 262.7 455.215 262.593 455.509 262.38C455.815 262.167 455.969 261.893 455.969 261.56C455.969 261.253 455.889 261.013 455.729 260.84C455.569 260.653 455.335 260.493 455.029 260.36C454.722 260.213 454.362 260.053 453.949 259.88L452.269 259.16C451.789 258.973 451.335 258.727 450.909 258.42C450.482 258.1 450.135 257.713 449.869 257.26C449.615 256.793 449.489 256.24 449.489 255.6C449.489 254.88 449.689 254.233 450.089 253.66C450.502 253.073 451.062 252.607 451.769 252.26C452.489 251.9 453.322 251.72 454.269 251.72C455.055 251.72 455.829 251.867 456.589 252.16C457.349 252.453 458.022 252.88 458.609 253.44L457.109 255.3C456.655 254.967 456.202 254.713 455.749 254.54C455.295 254.353 454.749 254.26 454.109 254.26C453.629 254.26 453.235 254.36 452.929 254.56C452.622 254.76 452.469 255.053 452.469 255.44C452.469 255.693 452.562 255.907 452.749 256.08C452.935 256.253 453.189 256.407 453.509 256.54C453.829 256.673 454.195 256.82 454.609 256.98L456.189 257.66C456.775 257.873 457.275 258.14 457.689 258.46C458.102 258.767 458.422 259.147 458.649 259.6C458.875 260.053 458.989 260.587 458.989 261.2C458.989 261.92 458.789 262.587 458.389 263.2C458.002 263.813 457.429 264.307 456.669 264.68C455.922 265.053 455.009 265.24 453.929 265.24ZM474.801 265V251.96H483.441V254.44H477.761V257.06H482.581V259.52H477.761V262.52H483.641V265H474.801ZM503.953 265.24C502.913 265.24 502 264.98 501.213 264.46C500.426 263.94 499.813 263.18 499.373 262.18C498.933 261.167 498.713 259.913 498.713 258.42C498.713 256.967 498.933 255.747 499.373 254.76C499.813 253.76 500.426 253.007 501.213 252.5C502 251.98 502.913 251.72 503.953 251.72C504.993 251.72 505.906 251.98 506.693 252.5C507.48 253.007 508.093 253.76 508.533 254.76C508.973 255.747 509.193 256.967 509.193 258.42C509.193 259.913 508.973 261.167 508.533 262.18C508.093 263.18 507.48 263.94 506.693 264.46C505.906 264.98 504.993 265.24 503.953 265.24ZM503.953 262.7C504.406 262.7 504.8 262.54 505.133 262.22C505.466 261.887 505.72 261.407 505.893 260.78C506.08 260.14 506.173 259.353 506.173 258.42C506.173 257.513 506.08 256.753 505.893 256.14C505.72 255.527 505.466 255.06 505.133 254.74C504.8 254.42 504.406 254.26 503.953 254.26C503.5 254.26 503.106 254.42 502.773 254.74C502.44 255.06 502.18 255.527 501.993 256.14C501.82 256.753 501.733 257.513 501.733 258.42C501.733 259.353 501.82 260.14 501.993 260.78C502.18 261.407 502.44 261.887 502.773 262.22C503.106 262.54 503.5 262.7 503.953 262.7ZM548.118 265L552.178 251.96H555.698L559.758 265H556.638L554.958 258.4C554.798 257.747 554.624 257.053 554.438 256.32C554.251 255.587 554.078 254.88 553.918 254.2H553.838C553.678 254.88 553.511 255.587 553.338 256.32C553.164 257.053 552.991 257.747 552.818 258.4L551.118 265H548.118ZM550.798 261.9V259.6H557.038V261.9H550.798ZM574.33 265V251.96H578.95C579.87 251.96 580.71 252.087 581.47 252.34C582.23 252.58 582.836 253 583.29 253.6C583.756 254.187 583.99 254.993 583.99 256.02C583.99 257.02 583.756 257.833 583.29 258.46C582.836 259.087 582.23 259.553 581.47 259.86C580.71 260.153 579.87 260.3 578.95 260.3H577.27V265H574.33ZM577.27 257.96H578.71C579.483 257.96 580.07 257.8 580.47 257.48C580.883 257.147 581.09 256.66 581.09 256.02C581.09 255.38 580.883 254.933 580.47 254.68C580.07 254.427 579.483 254.3 578.71 254.3H577.27V257.96ZM578.41 259.54L580.45 257.64L584.61 265H581.31L578.41 259.54ZM605.042 265.24C604.229 265.24 603.455 265.1 602.722 264.82C602.002 264.54 601.362 264.12 600.802 263.56C600.242 262.987 599.802 262.287 599.482 261.46C599.162 260.62 599.002 259.653 599.002 258.56C599.002 257.12 599.275 255.893 599.822 254.88C600.382 253.853 601.129 253.073 602.062 252.54C603.009 251.993 604.062 251.72 605.222 251.72C606.049 251.72 606.795 251.893 607.462 252.24C608.129 252.573 608.682 252.953 609.122 253.38L607.502 255.2C607.195 254.907 606.855 254.68 606.482 254.52C606.122 254.347 605.702 254.26 605.222 254.26C604.609 254.26 604.062 254.433 603.582 254.78C603.102 255.113 602.722 255.593 602.442 256.22C602.162 256.847 602.022 257.593 602.022 258.46C602.022 259.353 602.162 260.12 602.442 260.76C602.722 261.387 603.109 261.867 603.602 262.2C604.109 262.533 604.689 262.7 605.342 262.7C605.822 262.7 606.255 262.593 606.642 262.38C607.029 262.167 607.382 261.887 607.702 261.54L609.322 263.32C608.789 263.947 608.162 264.427 607.442 264.76C606.722 265.08 605.922 265.24 605.042 265.24ZM624.194 265V251.96H627.134V257H630.694V251.96H633.634V265H630.694V259.56H627.134V265H624.194ZM649.386 265V262.52H652.426V254.44H649.386V251.96H658.426V254.44H655.386V262.52H658.426V265H649.386ZM677.418 265V254.44H673.518V251.96H684.278V254.44H680.378V265H677.418ZM699.731 265V251.96H708.371V254.44H702.691V257.06H707.511V259.52H702.691V262.52H708.571V265H699.731ZM730.003 265.24C729.189 265.24 728.416 265.1 727.683 264.82C726.963 264.54 726.323 264.12 725.763 263.56C725.203 262.987 724.763 262.287 724.443 261.46C724.123 260.62 723.963 259.653 723.963 258.56C723.963 257.12 724.236 255.893 724.783 254.88C725.343 253.853 726.089 253.073 727.023 252.54C727.969 251.993 729.023 251.72 730.183 251.72C731.009 251.72 731.756 251.893 732.423 252.24C733.089 252.573 733.643 252.953 734.083 253.38L732.463 255.2C732.156 254.907 731.816 254.68 731.443 254.52C731.083 254.347 730.663 254.26 730.183 254.26C729.569 254.26 729.023 254.433 728.543 254.78C728.063 255.113 727.683 255.593 727.403 256.22C727.123 256.847 726.983 257.593 726.983 258.46C726.983 259.353 727.123 260.12 727.403 260.76C727.683 261.387 728.069 261.867 728.563 262.2C729.069 262.533 729.649 262.7 730.303 262.7C730.783 262.7 731.216 262.593 731.603 262.38C731.989 262.167 732.343 261.887 732.663 261.54L734.283 263.32C733.749 263.947 733.123 264.427 732.403 264.76C731.683 265.08 730.883 265.24 730.003 265.24ZM752.395 265V254.44H748.495V251.96H759.255V254.44H755.355V265H752.395Z" fill="black"/>
<path d="M349.676 193.074L356.866 178.316C365.343 183.16 376.468 185.809 384.793 185.809C390.848 185.809 395.313 184.446 396.222 181.57C400.99 167.115 352.022 174.305 351.417 143.804C351.114 127.229 365.57 120.645 381.312 120.645C391.908 120.645 403.109 123.597 410.904 128.592L404.774 142.745C396.07 138.128 387.291 135.933 380.782 135.933C374.576 135.933 370.414 137.977 370.414 141.761C369.581 154.778 417.11 149.102 415.597 177.635C415.067 195.269 399.779 201.778 383.204 201.778C371.019 201.778 358.077 198.296 349.676 193.074ZM461.643 113.758C455.209 113.758 450.063 108.914 450.063 103.011C450.063 96.8804 455.209 92.1123 461.643 92.1123C468.076 92.1123 473.071 96.8804 473.071 103.011C473.071 108.914 468.076 113.758 461.643 113.758ZM471.33 124.202V199.961H451.35V124.202H471.33ZM528.729 89.6147V200.037H508.672V89.6147H528.729ZM603.913 201.929C580.526 201.929 563.649 187.171 563.649 161.893C563.649 137.522 580.753 121.78 603.913 121.78C628.056 121.78 644.176 137.144 644.176 161.893C644.176 187.095 627.602 201.929 603.913 201.929ZM603.761 186.263C617.763 186.263 624.271 175.137 624.271 161.741C624.271 147.286 617.536 137.598 603.837 137.522C591.122 137.371 583.554 147.967 583.554 162.12C583.554 175.516 590.895 186.263 603.761 186.263ZM736.995 124.051H757.051V228.04H736.995V191.031C729.124 197.994 720.42 201.172 712.17 201.172C694.006 201.172 678.113 185.733 677.886 161.817C677.734 138.809 692.947 122.613 710.959 122.613C719.436 122.613 728.518 126.17 736.995 134.419V124.051ZM698.018 161.817C698.093 177.559 706.267 186.565 716.56 186.565C722.993 186.565 730.334 183.008 736.995 175.44V151.221C730.107 141.761 722.388 137.522 715.652 137.522C705.662 137.522 697.866 146.756 698.018 161.817Z" fill="black"/>
<defs>
<linearGradient id="paint0_linear_17_12" x1="39.7453" y1="31.6285" x2="335.731" y2="374.193" gradientUnits="userSpaceOnUse">
<stop stop-color="#FDD96A"/>
<stop offset="0.5" stop-color="#D39938"/>
</linearGradient>
<linearGradient id="paint1_linear_17_12" x1="160.016" y1="105.409" x2="183.609" y2="127.771" gradientUnits="userSpaceOnUse">
<stop stop-color="#FED86A"/>
<stop offset="0.5" stop-color="#D39938"/>
</linearGradient>
<linearGradient id="paint2_linear_17_12" x1="159.016" y1="207.409" x2="182.609" y2="229.771" gradientUnits="userSpaceOnUse">
<stop stop-color="#FED86A"/>
<stop offset="0.5" stop-color="#D39938"/>
</linearGradient>
<linearGradient id="paint3_linear_17_12" x1="235.016" y1="160.409" x2="258.609" y2="182.771" gradientUnits="userSpaceOnUse">
<stop stop-color="#FED86A"/>
<stop offset="0.5" stop-color="#D39938"/>
</linearGradient>
<linearGradient id="paint4_linear_17_12" x1="131.016" y1="160.409" x2="154.609" y2="182.771" gradientUnits="userSpaceOnUse">
<stop stop-color="#FED86A"/>
<stop offset="0.5" stop-color="#D39938"/>
</linearGradient>
<linearGradient id="paint5_linear_17_12" x1="152.031" y1="148.055" x2="189.298" y2="192.207" gradientUnits="userSpaceOnUse">
<stop stop-color="#FED86A"/>
<stop offset="0.5" stop-color="#D39938"/>
</linearGradient>
</defs>
</svg>
