<svg width="802" height="335" viewBox="0 0 802 335" fill="none" xmlns="http://www.w3.org/2000/svg">
<path d="M254 274H56V64H281V240" stroke="url(#paint0_linear_17_12)" stroke-width="24"/>
<path d="M269 240H293V265L269 240Z" fill="#D39938"/>
<path d="M254 262L254 286L278 286L254 262Z" fill="#D39938"/>
<rect x="158" y="106" width="20" height="25" fill="url(#paint1_linear_17_12)"/>
<rect x="157" y="208" width="20" height="25" fill="url(#paint2_linear_17_12)"/>
<rect x="233" y="161" width="20" height="25" transform="rotate(90 233 161)" fill="url(#paint3_linear_17_12)"/>
<rect x="129" y="161" width="20" height="25" transform="rotate(90 129 161)" fill="url(#paint4_linear_17_12)"/>
<circle cx="168" cy="169" r="20" fill="url(#paint5_linear_17_12)"/>
<path d="M352.52 259V248.44H348.62V245.96H359.38V248.44H355.48V259H352.52ZM374.272 259V245.96H377.212V251H380.772V245.96H383.712V259H380.772V253.56H377.212V259H374.272ZM399.824 259V245.96H408.464V248.44H402.784V251.06H407.604V253.52H402.784V256.52H408.664V259H399.824ZM453.929 259.24C453.049 259.24 452.175 259.08 451.309 258.76C450.455 258.44 449.675 257.973 448.969 257.36L450.669 255.34C451.162 255.74 451.702 256.067 452.289 256.32C452.889 256.573 453.502 256.7 454.129 256.7C454.755 256.7 455.215 256.593 455.509 256.38C455.815 256.167 455.969 255.893 455.969 255.56C455.969 255.253 455.889 255.013 455.729 254.84C455.569 254.653 455.335 254.493 455.029 254.36C454.722 254.213 454.362 254.053 453.949 253.88L452.269 253.16C451.789 252.973 451.335 252.727 450.909 252.42C450.482 252.1 450.135 251.713 449.869 251.26C449.615 250.793 449.489 250.24 449.489 249.6C449.489 248.88 449.689 248.233 450.089 247.66C450.502 247.073 451.062 246.607 451.769 246.26C452.489 245.9 453.322 245.72 454.269 245.72C455.055 245.72 455.829 245.867 456.589 246.16C457.349 246.453 458.022 246.88 458.609 247.44L457.109 249.3C456.655 248.967 456.202 248.713 455.749 248.54C455.295 248.353 454.749 248.26 454.109 248.26C453.629 248.26 453.235 248.36 452.929 248.56C452.622 248.76 452.469 249.053 452.469 249.44C452.469 249.693 452.562 249.907 452.749 250.08C452.935 250.253 453.189 250.407 453.509 250.54C453.829 250.673 454.195 250.82 454.609 250.98L456.189 251.66C456.775 251.873 457.275 252.14 457.689 252.46C458.102 252.767 458.422 253.147 458.649 253.6C458.875 254.053 458.989 254.587 458.989 255.2C458.989 255.92 458.789 256.587 458.389 257.2C458.002 257.813 457.429 258.307 456.669 258.68C455.922 259.053 455.009 259.24 453.929 259.24ZM474.801 259V245.96H483.441V248.44H477.761V251.06H482.581V253.52H477.761V256.52H483.641V259H474.801ZM503.953 259.24C502.913 259.24 502 258.98 501.213 258.46C500.426 257.94 499.813 257.18 499.373 256.18C498.933 255.167 498.713 253.913 498.713 252.42C498.713 250.967 498.933 249.747 499.373 248.76C499.813 247.76 500.426 247.007 501.213 246.5C502 245.98 502.913 245.72 503.953 245.72C504.993 245.72 505.906 245.98 506.693 246.5C507.48 247.007 508.093 247.76 508.533 248.76C508.973 249.747 509.193 250.967 509.193 252.42C509.193 253.913 508.973 255.167 508.533 256.18C508.093 257.18 507.48 257.94 506.693 258.46C505.906 258.98 504.993 259.24 503.953 259.24ZM503.953 256.7C504.406 256.7 504.8 256.54 505.133 256.22C505.466 255.887 505.72 255.407 505.893 254.78C506.08 254.14 506.173 253.353 506.173 252.42C506.173 251.513 506.08 250.753 505.893 250.14C505.72 249.527 505.466 249.06 505.133 248.74C504.8 248.42 504.406 248.26 503.953 248.26C503.5 248.26 503.106 248.42 502.773 248.74C502.44 249.06 502.18 249.527 501.993 250.14C501.82 250.753 501.733 251.513 501.733 252.42C501.733 253.353 501.82 254.14 501.993 254.78C502.18 255.407 502.44 255.887 502.773 256.22C503.106 256.54 503.5 256.7 503.953 256.7ZM548.118 259L552.178 245.96H555.698L559.758 259H556.638L554.958 252.4C554.798 251.747 554.624 251.053 554.438 250.32C554.251 249.587 554.078 248.88 553.918 248.2H553.838C553.678 248.88 553.511 249.587 553.338 250.32C553.164 251.053 552.991 251.747 552.818 252.4L551.118 259H548.118ZM550.798 255.9V253.6H557.038V255.9H550.798ZM574.33 259V245.96H578.95C579.87 245.96 580.71 246.087 581.47 246.34C582.23 246.58 582.836 247 583.29 247.6C583.756 248.187 583.99 248.993 583.99 250.02C583.99 251.02 583.756 251.833 583.29 252.46C582.836 253.087 582.23 253.553 581.47 253.86C580.71 254.153 579.87 254.3 578.95 254.3H577.27V259H574.33ZM577.27 251.96H578.71C579.483 251.96 580.07 251.8 580.47 251.48C580.883 251.147 581.09 250.66 581.09 250.02C581.09 249.38 580.883 248.933 580.47 248.68C580.07 248.427 579.483 248.3 578.71 248.3H577.27V251.96ZM578.41 253.54L580.45 251.64L584.61 259H581.31L578.41 253.54ZM605.042 259.24C604.229 259.24 603.455 259.1 602.722 258.82C602.002 258.54 601.362 258.12 600.802 257.56C600.242 256.987 599.802 256.287 599.482 255.46C599.162 254.62 599.002 253.653 599.002 252.56C599.002 251.12 599.275 249.893 599.822 248.88C600.382 247.853 601.129 247.073 602.062 246.54C603.009 245.993 604.062 245.72 605.222 245.72C606.049 245.72 606.795 245.893 607.462 246.24C608.129 246.573 608.682 246.953 609.122 247.38L607.502 249.2C607.195 248.907 606.855 248.68 606.482 248.52C606.122 248.347 605.702 248.26 605.222 248.26C604.609 248.26 604.062 248.433 603.582 248.78C603.102 249.113 602.722 249.593 602.442 250.22C602.162 250.847 602.022 251.593 602.022 252.46C602.022 253.353 602.162 254.12 602.442 254.76C602.722 255.387 603.109 255.867 603.602 256.2C604.109 256.533 604.689 256.7 605.342 256.7C605.822 256.7 606.255 256.593 606.642 256.38C607.029 256.167 607.382 255.887 607.702 255.54L609.322 257.32C608.789 257.947 608.162 258.427 607.442 258.76C606.722 259.08 605.922 259.24 605.042 259.24ZM624.194 259V245.96H627.134V251H630.694V245.96H633.634V259H630.694V253.56H627.134V259H624.194ZM649.386 259V256.52H652.426V248.44H649.386V245.96H658.426V248.44H655.386V256.52H658.426V259H649.386ZM677.418 259V248.44H673.518V245.96H684.278V248.44H680.378V259H677.418ZM699.731 259V245.96H708.371V248.44H702.691V251.06H707.511V253.52H702.691V256.52H708.571V259H699.731ZM730.003 259.24C729.189 259.24 728.416 259.1 727.683 258.82C726.963 258.54 726.323 258.12 725.763 257.56C725.203 256.987 724.763 256.287 724.443 255.46C724.123 254.62 723.963 253.653 723.963 252.56C723.963 251.12 724.236 249.893 724.783 248.88C725.343 247.853 726.089 247.073 727.023 246.54C727.969 245.993 729.023 245.72 730.183 245.72C731.009 245.72 731.756 245.893 732.423 246.24C733.089 246.573 733.643 246.953 734.083 247.38L732.463 249.2C732.156 248.907 731.816 248.68 731.443 248.52C731.083 248.347 730.663 248.26 730.183 248.26C729.569 248.26 729.023 248.433 728.543 248.78C728.063 249.113 727.683 249.593 727.403 250.22C727.123 250.847 726.983 251.593 726.983 252.46C726.983 253.353 727.123 254.12 727.403 254.76C727.683 255.387 728.069 255.867 728.563 256.2C729.069 256.533 729.649 256.7 730.303 256.7C730.783 256.7 731.216 256.593 731.603 256.38C731.989 256.167 732.343 255.887 732.663 255.54L734.283 257.32C733.749 257.947 733.123 258.427 732.403 258.76C731.683 259.08 730.883 259.24 730.003 259.24ZM752.395 259V248.44H748.495V245.96H759.255V248.44H755.355V259H752.395Z" fill="white"/>
<path d="M349.676 187.074L356.866 172.316C365.343 177.16 376.468 179.809 384.793 179.809C390.848 179.809 395.313 178.446 396.222 175.57C400.99 161.115 352.022 168.305 351.417 137.804C351.114 121.229 365.57 114.645 381.312 114.645C391.908 114.645 403.109 117.597 410.904 122.592L404.774 136.745C396.07 132.128 387.291 129.933 380.782 129.933C374.576 129.933 370.414 131.977 370.414 135.761C369.581 148.778 417.11 143.102 415.597 171.635C415.067 189.269 399.779 195.778 383.204 195.778C371.019 195.778 358.077 192.296 349.676 187.074ZM461.643 107.758C455.209 107.758 450.063 102.914 450.063 97.0107C450.063 90.8804 455.209 86.1123 461.643 86.1123C468.076 86.1123 473.071 90.8804 473.071 97.0107C473.071 102.914 468.076 107.758 461.643 107.758ZM471.33 118.202V193.961H451.35V118.202H471.33ZM528.729 83.6147V194.037H508.672V83.6147H528.729ZM603.913 195.929C580.526 195.929 563.649 181.171 563.649 155.893C563.649 131.522 580.753 115.78 603.913 115.78C628.056 115.78 644.176 131.144 644.176 155.893C644.176 181.095 627.602 195.929 603.913 195.929ZM603.761 180.263C617.763 180.263 624.271 169.137 624.271 155.741C624.271 141.286 617.536 131.598 603.837 131.522C591.122 131.371 583.554 141.967 583.554 156.12C583.554 169.516 590.895 180.263 603.761 180.263ZM736.995 118.051H757.051V222.04H736.995V185.031C729.124 191.994 720.42 195.172 712.17 195.172C694.006 195.172 678.113 179.733 677.886 155.817C677.734 132.809 692.947 116.613 710.959 116.613C719.436 116.613 728.518 120.17 736.995 128.419V118.051ZM698.018 155.817C698.093 171.559 706.267 180.565 716.56 180.565C722.993 180.565 730.334 177.008 736.995 169.44V145.221C730.107 135.761 722.388 131.522 715.652 131.522C705.662 131.522 697.866 140.756 698.018 155.817Z" fill="white"/>
<defs>
<linearGradient id="paint0_linear_17_12" x1="39.7453" y1="31.6285" x2="335.731" y2="374.193" gradientUnits="userSpaceOnUse">
<stop stop-color="#FDD96A"/>
<stop offset="0.5" stop-color="#D39938"/>
</linearGradient>
<linearGradient id="paint1_linear_17_12" x1="160.016" y1="105.409" x2="183.609" y2="127.771" gradientUnits="userSpaceOnUse">
<stop stop-color="#FED86A"/>
<stop offset="0.5" stop-color="#D39938"/>
</linearGradient>
<linearGradient id="paint2_linear_17_12" x1="159.016" y1="207.409" x2="182.609" y2="229.771" gradientUnits="userSpaceOnUse">
<stop stop-color="#FED86A"/>
<stop offset="0.5" stop-color="#D39938"/>
</linearGradient>
<linearGradient id="paint3_linear_17_12" x1="235.016" y1="160.409" x2="258.609" y2="182.771" gradientUnits="userSpaceOnUse">
<stop stop-color="#FED86A"/>
<stop offset="0.5" stop-color="#D39938"/>
</linearGradient>
<linearGradient id="paint4_linear_17_12" x1="131.016" y1="160.409" x2="154.609" y2="182.771" gradientUnits="userSpaceOnUse">
<stop stop-color="#FED86A"/>
<stop offset="0.5" stop-color="#D39938"/>
</linearGradient>
<linearGradient id="paint5_linear_17_12" x1="152.031" y1="148.055" x2="189.298" y2="192.207" gradientUnits="userSpaceOnUse">
<stop stop-color="#FED86A"/>
<stop offset="0.5" stop-color="#D39938"/>
</linearGradient>
</defs>
</svg>
