<svg width="249" height="234" viewBox="0 0 249 234" fill="none" xmlns="http://www.w3.org/2000/svg">
<path d="M210 222H12V12H237V188" stroke="url(#paint0_linear_61_4)" stroke-width="24"/>
<path d="M225 188H249V213L225 188Z" fill="#D39938"/>
<path d="M210 210L210 234L234 234L210 210Z" fill="#D39938"/>
<rect x="114" y="54" width="20" height="25" fill="url(#paint1_linear_61_4)"/>
<rect x="113" y="156" width="20" height="25" fill="url(#paint2_linear_61_4)"/>
<rect x="189" y="109" width="20" height="25" transform="rotate(90 189 109)" fill="url(#paint3_linear_61_4)"/>
<rect x="85" y="109" width="20" height="25" transform="rotate(90 85 109)" fill="url(#paint4_linear_61_4)"/>
<circle cx="124" cy="117" r="20" fill="url(#paint5_linear_61_4)"/>
<defs>
<linearGradient id="paint0_linear_61_4" x1="-4.25475" y1="-20.3715" x2="291.731" y2="322.193" gradientUnits="userSpaceOnUse">
<stop stop-color="#FDD96A"/>
<stop offset="0.5" stop-color="#D39938"/>
</linearGradient>
<linearGradient id="paint1_linear_61_4" x1="116.016" y1="53.4094" x2="139.609" y2="75.7712" gradientUnits="userSpaceOnUse">
<stop stop-color="#FED86A"/>
<stop offset="0.5" stop-color="#D39938"/>
</linearGradient>
<linearGradient id="paint2_linear_61_4" x1="115.016" y1="155.409" x2="138.609" y2="177.771" gradientUnits="userSpaceOnUse">
<stop stop-color="#FED86A"/>
<stop offset="0.5" stop-color="#D39938"/>
</linearGradient>
<linearGradient id="paint3_linear_61_4" x1="191.016" y1="108.409" x2="214.609" y2="130.771" gradientUnits="userSpaceOnUse">
<stop stop-color="#FED86A"/>
<stop offset="0.5" stop-color="#D39938"/>
</linearGradient>
<linearGradient id="paint4_linear_61_4" x1="87.0155" y1="108.409" x2="110.609" y2="130.771" gradientUnits="userSpaceOnUse">
<stop stop-color="#FED86A"/>
<stop offset="0.5" stop-color="#D39938"/>
</linearGradient>
<linearGradient id="paint5_linear_61_4" x1="108.031" y1="96.0551" x2="145.298" y2="140.207" gradientUnits="userSpaceOnUse">
<stop stop-color="#FED86A"/>
<stop offset="0.5" stop-color="#D39938"/>
</linearGradient>
</defs>
</svg>
